<svg viewBox="-4 -4 72 72" width="256" height="256" xmlns="http://www.w3.org/2000/svg">
  <g fill="#2e6f9e">
    <rect x="29" y="0" width="6" height="8" rx="2"/>
    <rect x="29" y="0" width="6" height="8" rx="2" transform="rotate(30 32 32)"/>
    <rect x="29" y="0" width="6" height="8" rx="2" transform="rotate(60 32 32)"/>
    <rect x="29" y="0" width="6" height="8" rx="2" transform="rotate(90 32 32)"/>
    <rect x="29" y="0" width="6" height="8" rx="2" transform="rotate(120 32 32)"/>
    <rect x="29" y="0" width="6" height="8" rx="2" transform="rotate(150 32 32)"/>
    <rect x="29" y="0" width="6" height="8" rx="2" transform="rotate(180 32 32)"/>
    <rect x="29" y="0" width="6" height="8" rx="2" transform="rotate(210 32 32)"/>
    <rect x="29" y="0" width="6" height="8" rx="2" transform="rotate(240 32 32)"/>
    <rect x="29" y="0" width="6" height="8" rx="2" transform="rotate(270 32 32)"/>
    <rect x="29" y="0" width="6" height="8" rx="2" transform="rotate(300 32 32)"/>
    <rect x="29" y="0" width="6" height="8" rx="2" transform="rotate(330 32 32)"/>
  </g>
  <circle cx="32" cy="32" r="24" fill="none" stroke="#2e6f9e" stroke-width="5"/>
  <path d="M42 20.5a9 9 0 0 0-11.6 11.6L17.5 45l5.5 5.5L36 37.6A9 9 0 0 0 47.5 26l-5.2 5.2-3.5-3.5 5.2-5.2z" fill="#245a82"/>
</svg>
